<?xml version="1.0" encoding="UTF-8"?>
<svg width="512" height="512" viewBox="0 0 512 512" xmlns="http://www.w3.org/2000/svg">
  <defs>
    <!-- Multi-color neon gradient background -->
    <linearGradient id="bgGradient" x1="0%" y1="0%" x2="100%" y2="100%">
      <stop offset="0%" style="stop-color:#1a1a2e"/>
      <stop offset="50%" style="stop-color:#16213e"/>
      <stop offset="100%" style="stop-color:#0f3460"/>
    </linearGradient>
    
    <!-- Vibrant neon glow gradient -->
    <linearGradient id="neonGlow" x1="0%" y1="0%" x2="100%" y2="100%">
      <stop offset="0%" style="stop-color:#00f5ff"/>
      <stop offset="25%" style="stop-color:#bc13fe"/>
      <stop offset="50%" style="stop-color:#ff006e"/>
      <stop offset="75%" style="stop-color:#ffbe0b"/>
      <stop offset="100%" style="stop-color:#38ef7d"/>
    </linearGradient>
    
    <!-- Strong neon glow effect -->
    <filter id="neonGlowEffect" x="-50%" y="-50%" width="200%" height="200%">
      <feGaussianBlur stdDeviation="12" result="blur"/>
      <feMerge>
        <feMergeNode in="blur"/>
        <feMergeNode in="blur"/>
        <feMergeNode in="SourceGraphic"/>
      </feMerge>
    </filter>
  </defs>
  
  <!-- Background with gradient -->
  <rect width="512" height="512" rx="64" fill="url(#bgGradient)"/>
  
  <!-- Glow rings for depth -->
  <circle cx="256" cy="256" r="200" fill="none" stroke="url(#neonGlow)" stroke-width="4" opacity="0.3"/>
  <circle cx="256" cy="256" r="160" fill="none" stroke="url(#neonGlow)" stroke-width="2" opacity="0.2"/>
  
  <!-- Phaser logo abstract (cube-like) -->
  <g filter="url(#neonGlowEffect)">
    <!-- Outer glow ring -->
    <circle cx="256" cy="256" r="90" fill="none" stroke="url(#neonGlow)" stroke-width="6" opacity="0.8"/>
    
    <!-- Abstract cube/polygon -->
    <polygon points="256,180 340,230 340,330 256,380 172,330 172,230" 
             fill="none" 
             stroke="url(#neonGlow)" 
             stroke-width="8"
             stroke-linejoin="round"/>
    
    <!-- Inner fill -->
    <polygon points="256,200 325,242 325,322 256,360 187,322 187,242" 
             fill="url(#neonGlow)" 
             opacity="0.3"/>
  </g>
  
  <!-- Decorative elements -->
  <circle cx="120" cy="120" r="20" fill="url(#neonGlow)" filter="url(#neonGlowEffect)"/>
  <circle cx="392" cy="120" r="20" fill="url(#neonGlow)" filter="url(#neonGlowEffect)"/>
  <circle cx="120" cy="392" r="20" fill="url(#neonGlow)" filter="url(#neonGlowEffect)"/>
  <circle cx="392" cy="392" r="20" fill="url(#neonGlow)" filter="url(#neonGlowEffect)"/>
  
  <!-- Corner glow accents -->
  <path d="M 64 64 L 96 64 L 64 96 Z" fill="url(#neonGlow)" opacity="0.8" filter="url(#neonGlowEffect)"/>
  <path d="M 448 64 L 416 64 L 448 96 Z" fill="url(#neonGlow)" opacity="0.8" filter="url(#neonGlowEffect)"/>
  <path d="M 64 448 L 96 448 L 64 416 Z" fill="url(#neonGlow)" opacity="0.8" filter="url(#neonGlowEffect)"/>
  <path d="M 448 448 L 416 448 L 448 416 Z" fill="url(#neonGlow)" opacity="0.8" filter="url(#neonGlowEffect)"/>
</svg>